<!DOCTYPE svg PUBLIC "-//W3C//DTD SVG 1.1//EN" "http://www.w3.org/Graphics/SVG/1.1/DTD/svg11.dtd">
<!-- Uploaded to: SVG Repo, www.svgrepo.com, Transformed by: SVG Repo Mixer Tools -->
<svg width="193px" height="193px" viewBox="-1.7 -1.7 20.40 20.40" fill="none" xmlns="http://www.w3.org/2000/svg" stroke="#000000" stroke-width="0.153" transform="rotate(0)">
<g id="SVGRepo_bgCarrier" stroke-width="0">
<path transform="translate(-1.7, -1.7), scale(0.6375)" d="M16,29.36012365988323C18.54570022925608,29.241906683036767,21.483807600227877,30.55190117298778,23.506523579891237,29.001680228585442C25.568007241266987,27.421747514087496,24.730592665091237,24.037510745228776,25.94237385076191,21.74023221912129C27.08882661387976,19.566802440667047,29.985897222895446,18.427888565174328,30.3647217931492,16C30.74643573562746,13.553593433789741,29.259666782929443,11.199647777510556,27.91101996694128,9.12316941576345C26.606500020024672,7.114632109978869,24.721558813792605,5.665471048259999,22.760042733379777,4.291262524449445C20.64419487792434,2.808931491281877,18.557431683088097,1.1440850848726454,16.000000000000004,0.7784888244100969C13.28108098245284,0.38980722955495406,10.112710992974737,0.40148996288873784,8.023695903697188,2.184636048583762C5.928788468943712,3.9728117354649584,6.042683830834843,7.189444228897839,5.362523001973823,9.858449791691127C4.843208366119041,11.896282011840349,4.962058887813537,13.947746871504204,4.50303280459983,15.999999999999998C3.8896210849505017,18.742493655028802,1.498741465248966,21.24360173330758,2.2077807909214293,23.962941473083827C2.911255466073093,26.660939413115997,5.483395167249228,28.702005518708077,8.079873507576323,29.718061487250075C10.583544656878331,30.697800072011095,13.314352428532565,29.484839497641826,16,29.36012365988323" fill="#7ed0ec" strokewidth="0"/>
</g>
<g id="SVGRepo_tracerCarrier" stroke-linecap="round" stroke-linejoin="round"/>
<g id="SVGRepo_iconCarrier"> <path fill-rule="evenodd" clip-rule="evenodd" d="M12.4964 14.6178C11.215 15.4901 9.66706 16 8 16C3.58172 16 0 12.4183 0 8C0 3.58172 3.58172 0 8 0C12.4183 0 16 3.58172 16 8C16 9.66706 15.4901 11.215 14.6178 12.4964L16.0607 13.9393L13.9393 16.0607L12.4964 14.6178ZM10.3128 12.4341C9.62116 12.7956 8.83445 13 8 13C5.23858 13 3 10.7614 3 8C3 5.23858 5.23858 3 8 3C10.7614 3 13 5.23858 13 8C13 8.83445 12.7956 9.62116 12.4341 10.3128L11.0607 8.93934L8.93934 11.0607L10.3128 12.4341Z" fill="#ffffff"/> </g>
</svg>